<?xml version="1.0" encoding="UTF-8" standalone="no"?>
<svg
   xmlns:dc="http://purl.org/dc/elements/1.1/"
   xmlns:cc="http://creativecommons.org/ns#"
   xmlns:rdf="http://www.w3.org/1999/02/22-rdf-syntax-ns#"
   xmlns:svg="http://www.w3.org/2000/svg"
   xmlns="http://www.w3.org/2000/svg"
   xmlns:sodipodi="http://sodipodi.sourceforge.net/DTD/sodipodi-0.dtd"
   xmlns:inkscape="http://www.inkscape.org/namespaces/inkscape"
   width="73.435394"
   height="95.397125"
   id="svg4018"
   version="1.1"
   inkscape:version="0.48.3.1 r9886"
   sodipodi:docname="beermug.svg">
  <metadata
     id="metadata4140">
    <rdf:RDF>
      <cc:Work
         rdf:about="">
        <dc:format>image/svg+xml</dc:format>
        <dc:type
           rdf:resource="http://purl.org/dc/dcmitype/StillImage" />
      </cc:Work>
    </rdf:RDF>
  </metadata>
  <defs
     id="defs4138" />
  <sodipodi:namedview
     pagecolor="#ffffff"
     bordercolor="#666666"
     borderopacity="1"
     objecttolerance="10"
     gridtolerance="10"
     guidetolerance="10"
     inkscape:pageopacity="0"
     inkscape:pageshadow="2"
     inkscape:window-width="1440"
     inkscape:window-height="880"
     id="namedview4136"
     showgrid="false"
     fit-margin-top="0"
     fit-margin-left="0"
     fit-margin-right="0"
     fit-margin-bottom="0"
     inkscape:zoom="4.0408038"
     inkscape:cx="77.755982"
     inkscape:cy="72.238073"
     inkscape:window-x="-3"
     inkscape:window-y="-3"
     inkscape:window-maximized="1"
     inkscape:current-layer="Layer_1" />
  <g
     id="Layer_1"
     transform="matrix(0.04936065,0,0,0.04936065,-2.3245047,2.732607)">
    <g
       id="svg_99" />
    <g
       id="svg_120">
      <path
         style="fill:#eff3fa"
         inkscape:connector-curvature="0"
         d="m 1235.8643,1435.0901 c -7.4467,0 -15.1554,-0.1806 -22.8676,-0.5454 l -12.9664,-0.6175 -1.7963,-147.0407 15.8126,2.1954 c 0.011,0 4.7455,0.6141 12.468,0.6141 40.2187,0 135.344,-15.5695 151.09,-159.5379 3.0552,-135.90114 -1.9656,-352.34053 -28.3269,-393.3265 l -1.0747,-1.67144 -0.5729,-1.91364 c -0.1307,-0.45849 -15.5161,-49.20367 -50.5011,-49.20367 -22.8531,0 -51.7003,19.88788 -83.4216,57.50451 l -3.0374,3.60383 -43.3724,9.34106 -15.4596,-214.51892 10.0071,-3.53485 c 2.1246,-0.74719 52.6191,-18.32794 114.5378,-18.32794 76.9899,0 208.4403,29.65521 223.7054,228.26123 1.1351,12.90087 28.2103,320.49723 19.1436,425.80853 -0.039,10.4496 -2.33,111.5109 -74.6059,185.9537 -49.5817,51.0595 -119.8246,76.9561 -208.7617,76.9561 z"
         id="svg_121" />
      <path
         style="fill:#8bacdb"
         inkscape:connector-curvature="0"
         d="m 1276.3795,532.16736 c 87.0672,0 196.2341,36.56604 209.9645,215.29828 0,0 28.3373,319.44686 19.1083,424.08616 0,0 2.1146,249.4744 -269.588,249.4744 -7.2172,0 -14.625,-0.1768 -22.2277,-0.5341 l -1.4353,-117.4762 c 0,0 5.3888,0.7475 14.3133,0.7475 39.4268,0 147.8581,-14.5838 164.8484,-172.6664 0,0 7.7832,-342.35707 -30.5682,-401.98488 0,0 -17.8251,-59.1261 -63.6697,-59.13306 -23.4825,0 -54.3022,15.5008 -93.8559,62.38978 l -23.394,5.03704 -13.5324,-187.67572 c 0.011,-0.004 49.734,-17.55572 110.0367,-17.5628 m 0.018,-28.13141 0,28.13141 -0.011,-28.13141 c -64.2063,0.007 -116.8257,18.32092 -119.0465,19.11163 l -20.0243,7.06647 1.5594,21.58118 13.5325,187.67572 2.3088,32.10016 30.8448,-6.64423 23.3974,-5.03345 9.1015,-1.96039 6.0716,-7.20715 c 38.6237,-45.7915 62.3043,-52.61951 72.9866,-52.61951 24.3666,0 37.2661,39.02497 37.3895,39.41858 l 1.1599,3.82001 2.1076,3.20673 c 4.6181,7.18536 20.0952,43.48413 25.1552,208.78796 2.6058,85.27544 1.1382,165.15584 0.9119,175.88704 -14.1615,127.3551 -92.0558,146.4089 -137.3278,146.4089 -6.6544,0 -10.7135,-0.5022 -10.7666,-0.5126 l -31.6438,-4.3875 0.5478,32.6341 1.4322,117.4757 0.3255,26.514 25.9366,1.2314 c 7.9312,0.3791 15.8377,0.5706 23.5034,0.5706 92.7461,0 166.2737,-27.2937 218.55,-81.1373 74.6239,-76.862 78.4356,-180.7148 78.5872,-195.1723 8.9853,-106.6795 -17.8423,-412.37996 -19.2075,-427.7513 -16.1557,-209.74841 -155.6542,-241.06445 -237.3821,-241.06445 l 0,0 z"
         id="svg_122" />
      <path
         style="fill:#eff3fa"
         inkscape:connector-curvature="0"
         d="m 703.62494,1661.0472 c -104.61249,0 -358.49069,-12.8324 -456.39168,-131.7131 -2.08653,-2.5456 -3.23549,-5.7626 -3.22523,-9.0881 l 1.93077,-917.46701 c 0.0143,-7.01568 5.08859,-12.95141 11.89854,-13.90527 L 1167.1415,461.52991 c 0.6191,-0.0869 1.2451,-0.13352 1.8636,-0.13352 3.1966,0 6.3227,1.13706 8.8153,3.25327 2.974,2.52765 4.7735,6.22137 4.9439,10.16098 l 45.9535,1018.82426 c 0.1377,3.2858 -0.8487,6.535 -2.7901,9.1571 -33.3831,44.8851 -147.2918,150.102 -483.20517,157.5222 l 0,0 c 0.10614,0.014 -14.66369,0.733 -39.09759,0.733 z"
         id="svg_123" />
      <path
         style="fill:#8bacdb"
         inkscape:connector-curvature="0"
         d="m 1169.0055,475.47488 45.9466,1018.82452 c -30.4234,40.9242 -140.0539,144.625 -472.52992,151.9689 -0.72479,0.036 -15.15888,0.7114 -38.80066,0.7114 -97.38519,0 -350.98373,-11.5077 -445.84018,-126.7013 l 1.9307,-917.46328 909.29346,-127.34024 m 0,-28.12756 c -1.2485,0 -2.4967,0.0864 -3.7412,0.26004 L 255.96719,574.94727 c -13.62405,1.91034 -23.77957,13.77173 -23.80772,27.81414 l -1.92726,917.46279 c -0.0142,6.6438 2.28087,13.0821 6.46385,18.1624 45.07707,54.739 125.09306,93.7893 237.82805,116.0677 90.98822,17.9778 182.59534,20.6603 229.10132,20.6603 22.45685,0 36.99328,-0.6063 39.71264,-0.7253 341.67313,-7.6116 458.96243,-116.5665 493.54803,-163.0689 3.9038,-5.2463 5.8734,-11.728 5.5765,-18.3032 l -45.94,-1018.83165 c -0.3572,-7.8963 -3.9425,-15.26944 -9.8866,-20.32102 -4.9752,-4.24286 -11.2339,-6.51721 -17.6305,-6.51721 l 0,0 z"
         id="svg_124" />
      <path
         style="fill:#eff3fa"
         inkscape:connector-curvature="0"
         d="m 729.90448,1863.2244 c -103.00714,0 -358.28519,-10.3522 -503.65407,-106.2648 -1.0536,-0.6821 -2.00119,-1.5238 -2.82855,-2.4767 -4.08075,-4.6976 -38.42255,-50.5217 9.85832,-211.6697 1.72902,-5.7735 6.87387,-9.7851 12.79334,-9.9476 0,0 4.15805,-0.1118 4.28181,-0.1118 3.70565,0 7.2632,1.5235 9.85823,4.2355 17.13578,17.9381 39.01303,34.1575 65.02027,48.2139 119.16302,64.4164 300.62359,71.3777 373.10492,71.3777 25.8128,0 42.39654,-0.8343 44.20684,-0.9283 307.58281,-6.7986 427.05731,-93.2002 470.94611,-144.094 2.6274,-3.0582 6.4108,-4.7772 10.3396,-4.7772 0.5939,0 1.2023,0.043 1.8029,0.1156 4.5474,0.6141 8.5006,3.5062 10.5377,7.7165 7.1816,14.815 68.4957,146.7842 10.8307,215.9121 -0.3044,0.3678 -0.6293,0.7182 -0.976,1.0577 -5.0105,4.8891 -126.886,119.8594 -480.23497,131.132 -0.43854,0.014 -13.47931,0.5236 -35.86939,0.5236 -0.007,-0.014 -0.0142,-0.014 -0.0178,-0.014 z"
         id="svg_125" />
      <path
         style="fill:#8bacdb"
         inkscape:connector-curvature="0"
         d="m 1223.8276,1520.8385 c 6.022,12.4246 64.8258,138.0391 12.6908,200.5594 0,0 -119.0221,116.0171 -471.16147,127.2463 0,0 -13.06237,0.5202 -35.45196,0.5202 -94.03644,0 -352.35925,-9.1317 -496.17897,-104.0154 0,0 -34.68849,-39.9565 12.72255,-198.2196 l 3.90726,-0.1077 c 19.05511,19.9346 42.36813,36.7208 68.42846,50.8098 119.77518,64.7481 296.99271,73.0063 379.55826,73.0063 25.42371,0 41.88031,-0.7801 44.91058,-0.9387 314.35069,-6.9509 436.50539,-97.747 480.57449,-148.8606 m -0.014,-28.1281 c -7.857,0 -15.3956,3.4341 -20.6712,9.5429 -19.3736,22.4775 -57.3468,55.1802 -128.2474,83.3727 -85.90725,34.1543 -197.6907,52.9804 -332.2499,55.9486 -0.2685,0.01 -0.53742,0.015 -0.80982,0.029 -1.7749,0.098 -18.03003,0.9101 -43.50335,0.9101 -71.45557,0 -250.22861,-6.7991 -366.6655,-69.7385 -24.73441,-13.3775 -45.4661,-28.7162 -61.60813,-45.6073 -5.18707,-5.4265 -12.30181,-8.4815 -19.70967,-8.4815 -0.24736,0 -0.50198,0 -0.75663,0.011 l -3.90372,0.1044 c -11.82797,0.3321 -22.12813,8.3409 -25.58299,19.8917 -48.1888,160.8515 -17.53843,212.9695 -6.99425,225.1122 1.65484,1.9135 3.56444,3.5891 5.66475,4.9791 148.44829,97.9348 406.895,108.5105 511.12553,108.5105 22.66248,0 35.96472,-0.52 36.5163,-0.5377 358.34588,-11.4284 483.93718,-129.9732 489.11068,-135.0102 0.6787,-0.6677 1.3365,-1.3681 1.9482,-2.1045 62.078,-74.4143 3.4265,-205.7119 -8.9638,-231.276 -4.0735,-8.4058 -11.9765,-14.1795 -21.0851,-15.4108 -1.1988,-0.1734 -2.4085,-0.2457 -3.614,-0.2457 l 0,0 z"
         id="svg_126" />
      <path
         style="fill:#ffcd49"
         inkscape:connector-curvature="0"
         d="m 1138.3162,1390.8005 c 0.7213,51.5507 -37.2022,107.7559 -84.2913,124.9214 -188.76208,68.7921 -386.66858,76.1111 -580.83069,28.8605 -23.12213,-5.6218 -46.35348,-11.3268 -68.97702,-18.8445 -47.55209,-15.786 -87.07009,-70.8934 -87.8056,-122.4548 l -6.54901,-459.39632 c -0.72461,-51.55774 -1.93756,-135.93768 -2.6662,-187.50964 l -6.54843,-459.39252 c -0.73199,-51.56526 39.53232,-94.37779 89.47839,-95.13237 l 229.32044,-3.48466 c 49.94611,-0.76154 131.68793,-2.00013 181.63007,-2.75829 l 229.31355,-3.48116 c 49.9604,-0.75808 68.7187,40.81226 69.4507,92.37391 l 24.7168,459.3923 c 0.7213,51.56525 6.4704,135.94525 7.206,187.51001 l 6.5523,459.39614 z"
         id="svg_127" />
      <path
         style="fill:#f89939"
         inkscape:connector-curvature="0"
         d="m 1066.4791,1220.1891 c 3.1614,51.3844 2.9912,96.9632 -34.2885,106.4629 -39.4937,10.0633 -43.63445,-39.6822 -44.7199,-91.3701 -2.88202,-136.5766 -1.72216,-273.57957 -1.9411,-410.27891 -0.0743,-45.6145 -0.19134,-120.24133 -0.2655,-165.85284 l -0.62921,-406.3396 c -0.0709,-45.60028 3.82947,-83.46605 8.66308,-84.14138 l 22.21343,-3.08357 c 4.8441,-0.66064 12.7542,-1.75816 17.6053,-2.43693 l 22.2097,-3.07296 c 4.8373,-0.67532 6.6516,36.10036 6.726,81.70032 l 2.3899,406.33627 c 0.074,45.6142 0.633,120.23768 0.6966,165.85224 0.1273,83.11273 -0.064,166.23236 0.2514,249.34446 0.1905,51.9334 -2.1857,104.4553 1.0254,156.0783 0.021,0.2565 0.038,0.5271 0.063,0.8018 z"
         id="svg_128" />
      <path
         style="fill:#ffffff"
         inkscape:connector-curvature="0"
         d="m 1056.7656,570.1994 c 0,0 142.9178,130.96552 197.8888,-112.25836 0,0 87.9477,-37.42578 29.3101,-119.75418 0,0 29.313,-97.2845 -54.9673,-86.0586 0,0 10.9934,-127.22483 -109.9381,-104.77665 0,0 -40.3067,-74.847254 -117.2608,-14.97023 0,0 16.0325,-73.685038 -18.31984,-113.616102 0,0 -135.5951,-140.841448 -282.16974,8.842674 0,0 -76.95728,-59.877224 -139.25122,22.455212 0,0 -62.29352,-44.90691 -120.93119,29.936829 0,0 -62.29388,-104.787682 -131.92499,0 0,0 -164.90489,-22.455292 -142.91793,145.939197 0,0 -128.254356,71.08855 -62.2901,164.64681 0,0 -80.062062,59.49814 -21.986972,123.48791 0,0 -48.892361,71.97657 43.977352,130.96912 0,0 14.65676,78.58063 73.29047,56.12884 0,0 -18.31633,119.74366 58.63058,138.46167 0,0 14.65683,254.44956 168.57181,231.99846 0,0 117.26084,3.7369 139.25119,-160.90605 0,0 135.59192,-82.32525 69.62763,-194.59076 0,0 128.16583,42.62445 172.14312,-80.86291 0,0 88.85273,57.97778 125.48572,-9.37702 -0.0103,-0.004 112.78081,67.78473 123.78141,-55.69586 z"
         id="svg_129" />
      <path
         style="fill:#8bacdb"
         inkscape:connector-curvature="0"
         d="m 407.68985,1087.0967 c -132.33865,0 -158.367,-190.10616 -162.76239,-236.74215 -58.81409,-21.49194 -62.86629,-95.15795 -61.11952,-131.2655 -1.52413,0.11542 -3.0374,0.17627 -4.5262,0.17627 -44.19998,0 -60.83322,-47.99005 -65.41602,-65.4447 -31.742841,-21.36835 -50.784245,-46.82788 -56.636048,-75.72461 -5.470154,-27.02997 2.294632,-49.9837 8.111454,-62.33209 -13.832802,-18.15518 -19.844269,-37.68912 -17.888531,-58.18378 3.040936,-31.85415 25.063229,-57.155 38.35825,-69.73093 -13.525055,-23.58178 -17.601898,-47.87506 -12.121384,-72.38476 11.085388,-49.47821 58.559909,-84.49509 77.880589,-96.94847 -4.44804,-46.56082 4.78777,-83.53488 27.49938,-110.03067 32.49612,-37.891246 83.78924,-43.552882 111.47949,-43.552882 4.66083,0 8.71649,0.155167 11.95172,0.35743 22.008,-30.481991 46.14493,-45.932243 71.83404,-45.932243 30.75266,0 54.7338,22.559818 67.75699,38.356842 27.74311,-28.61153 55.57529,-35.085426 75.05488,-35.085426 17.56695,0 32.18835,5.105415 41.56573,9.543007 22.88178,-25.997748 50.53644,-39.660494 80.57495,-39.660494 26.11328,0 48.10358,10.178598 60.24658,17.26292 45.22522,-43.231516 94.01532,-65.134493 145.17761,-65.134493 85.71619,0 146.05103,61.635769 148.58301,64.261011 0.18006,0.187685 0.34998,0.382561 0.51972,0.58095 23.80775,27.665836 26.63655,67.976177 25.16895,95.522628 13.4832,-6.585887 26.7645,-9.904323 39.7059,-9.904323 34.9889,0 57.2446,23.776963 66.9011,36.962963 38.9281,-5.24601 69.0652,3.92893 89.6554,26.89641 21.9018,24.42371 26.7959,58.35739 27.6267,78.20198 26.3715,0.31778 40.4449,12.12506 47.6265,22.05817 17.7403,24.53116 11.9835,60.88123 8.4088,76.2807 17.3618,26.56043 22.8635,52.00943 16.3471,75.73194 -8.6106,31.33441 -35.9649,49.46749 -48.716,56.41439 -29.9602,125.27143 -85.2386,151.82495 -126.6983,151.82495 -29.5008,0 -56.0848,-13.29443 -73.0715,-24.32934 -12.8073,54.52258 -49.4511,63.38678 -71.87634,63.38678 -0.004,0 -0.004,0 -0.004,0 -22.42884,0 -44.31305,-8.36963 -57.21967,-14.42145 -14.23932,18.6532 -34.47949,28.42773 -59.23846,28.42773 -24.88996,0 -49.30976,-9.94012 -64.11493,-17.39654 -24.34528,53.14667 -69.7298,82.17316 -129.32233,82.17316 -9.25336,0 -17.82098,-0.71149 -25.28229,-1.6969 8.51496,23.961 9.79816,48.24725 3.80823,72.51489 -14.4975,58.69287 -67.42456,98.93823 -85.09369,110.98029 -24.39148,160.82604 -136.81845,166.52404 -151.06522,166.59634 -6.66882,0.9173 -13.27716,1.39 -19.67065,1.39 z M 199.26022,687.10455 c 3.1187,0 6.20578,1.07972 8.69506,3.15937 3.80491,3.15948 5.67172,8.13165 4.91162,13.07489 -0.1559,1.05426 -15.39234,107.13421 48.2169,122.61029 5.90521,1.43329 10.20142,6.65491 10.55838,12.84332 0.12384,2.20636 14.29981,220.17638 136.04065,220.17638 5.4314,0 11.09622,-0.4184 16.8349,-1.2602 0.77774,-0.1119 1.59485,-0.1627 2.37613,-0.1335 10.97586,0 105.87164,-4.1741 125.16772,-148.74893 0.56922,-4.24206 3.00556,-7.99737 6.60834,-10.18939 0.62592,-0.37896 63.94892,-39.61346 78.1637,-97.50073 6.33258,-25.78461 1.85614,-51.94781 -13.30615,-77.75738 -2.95984,-5.03028 -2.54578,-11.41053 1.03979,-15.99988 3.57837,-4.58917 9.57904,-6.41986 15.03485,-4.60694 0.16626,0.0575 19.86554,6.4162 45.39539,6.4162 54.08282,0 90.93554,-26.48498 109.53448,-78.71795 1.42871,-4.00794 4.56507,-7.14924 8.52924,-8.51777 3.95306,-1.372 8.31293,-0.8305 11.8313,1.46961 0.30041,0.19867 32.72223,20.98913 63.53821,20.98913 19.32428,0 33.22088,-8.28637 42.49566,-25.33654 1.80725,-3.31464 4.84076,-5.75208 8.41968,-6.74506 3.57477,-1.00018 7.40424,-0.47998 10.60791,1.45184 0.26141,0.15161 28.18182,16.62049 54.94226,16.62049 0.0389,0 0.0776,0 0.11652,0 10.68224,0 42.57354,-0.22046 48.02964,-61.46277 0.4741,-5.30005 3.8366,-9.86463 8.6811,-11.81403 4.8478,-1.95361 10.3635,-0.93524 14.2359,2.6178 0.3325,0.30304 35.2221,31.61951 73.8918,31.61951 58.2803,0 87.2969,-74.27002 101.3768,-136.56952 1.0011,-4.42002 4.0208,-8.07398 8.1263,-9.82163 0.2757,-0.12298 32.0217,-14.16137 39.4365,-41.46588 4.5016,-16.63098 -0.866,-35.82196 -15.9683,-57.02093 -2.5532,-3.58173 -3.3064,-8.18198 -2.0227,-12.40677 3.207,-10.78513 9.0309,-42.31436 -2.4716,-58.16159 -6.5769,-9.056 -19.1368,-12.27671 -37.5489,-9.82477 -4.1583,0.56677 -8.3093,-0.84174 -11.3188,-3.79846 -3.0125,-2.95047 -4.5542,-7.13858 -4.1866,-11.38144 0.039,-0.43329 3.5182,-46.46637 -20.4061,-73.02387 -11.5732,-12.86162 -27.5813,-19.10808 -48.9136,-19.10808 -7.5246,0 -15.7459,0.81937 -24.4266,2.42989 -5.8345,1.07636 -11.6792,-1.75813 -14.5296,-7.05887 -0.6647,-1.20231 -17.3828,-30.90071 -48.2911,-30.90071 -14.8761,0 -31.2157,6.84592 -48.5564,20.33968 -4.6005,3.57805 -10.9052,3.83806 -15.77385,0.66366 -4.87293,-3.18809 -7.27368,-9.1313 -6.01856,-14.90141 0.12738,-0.64966 13.93901,-66.824074 -14.93603,-100.938354 -3.97797,-3.978863 -57.25507,-55.627234 -128.69977,-55.627234 -46.60821,0 -91.57568,21.790861 -133.67877,64.773104 -4.87976,4.979321 -12.59863,5.509941 -18.08313,1.246056 -0.2016,-0.159245 -24.00568,-18.148148 -53.66248,-18.148148 -24.932,0 -47.2547,12.792858 -66.33886,38.007275 -4.51203,5.960846 -12.82148,7.239059 -18.84333,2.895683 -0.0847,-0.06158 -15.60766,-10.785385 -36.95831,-10.785385 -23.54608,0 -45.51175,12.796242 -65.27103,38.017738 -2.81094,3.585197 -7.16403,5.5532 -11.64743,5.249481 -4.49084,-0.295685 -8.54647,-2.805016 -10.88726,-6.737549 C 429.13583,86.93226 405.09811,47.50678 374.3559,47.50678 c -17.85657,0 -35.93979,13.590977 -53.74698,40.3969 -2.93823,4.408676 -8.05155,6.745102 -13.22125,6.044724 -0.0423,-0.0034 -6.69339,-0.870087 -16.82804,-0.870087 -23.01886,0 -65.42634,4.415627 -90.74772,33.951833 -18.74097,21.8593 -25.42412,54.51163 -19.86881,97.06055 0.75664,5.78114 -2.06502,11.4352 -7.08233,14.21904 -0.59449,0.33583 -61.46318,34.75703 -72.31849,83.5168 -4.533085,20.35416 0.2547,40.15512 14.63176,60.55234 4.43077,6.27875 3.05517,15.03506 -3.06546,19.59167 -0.32547,0.23487 -34.211034,26.0087 -37.241178,58.45832 -1.425224,15.31344 4.214539,29.72732 17.248383,44.09475 4.398888,4.84558 4.900879,12.15003 1.216354,17.57325 -0.106155,0.16253 -14.840675,22.8272 -9.034256,50.67334 4.657043,22.35437 21.141797,42.65393 48.970157,60.33569 3.26358,2.07629 5.53016,5.45227 6.25488,9.30841 0.0851,0.45483 9.67096,48.73102 39.76964,48.73102 4.61084,0 9.70982,-1.05072 15.14458,-3.13074 1.55607,-0.61737 3.20022,-0.91003 4.82309,-0.91003 z"
         id="svg_130" />
      <path
         style="fill:#f89939"
         inkscape:connector-curvature="0"
         d="m 597.82062,1399.3184 c 20.55823,0 20.55823,-32.5616 0,-32.5616 -20.56885,0 -20.56885,32.5616 0,32.5616 l 0,0 z"
         id="svg_131" />
      <path
         style="fill:#f89939"
         inkscape:connector-curvature="0"
         d="m 689.64368,1164.908 c 20.56158,0 20.56158,-32.5614 0,-32.5614 -20.56159,0 -20.56165,32.5614 0,32.5614 l 0,0 z"
         id="svg_132" />
      <path
         style="fill:#f89939"
         inkscape:connector-curvature="0"
         d="m 809.01215,864.86536 c 20.55816,0 20.55816,-32.56153 0,-32.56153 -20.56549,0 -20.56549,32.56153 0,32.56153 l 0,0 z"
         id="svg_133" />
      <path
         style="fill:#f89939"
         inkscape:connector-curvature="0"
         d="m 469.26593,1193.0397 c 20.55814,0 20.55814,-32.5657 0,-32.5657 -20.56552,0 -20.56552,32.5657 0,32.5657 l 0,0 z"
         id="svg_134" />
      <path
         style="fill:#f89939"
         inkscape:connector-curvature="0"
         d="m 900.83533,1394.6283 c 20.56152,0 20.56152,-32.5615 0,-32.5615 -20.56153,0 -20.56226,32.5615 0,32.5615 l 0,0 z"
         id="svg_135" />
      <path
         style="fill:#f89939"
         inkscape:connector-curvature="0"
         d="m 835.6029,1022.9697 c 1.96277,-6.3691 2.39051,-13.0527 -1.39654,-18.9856 -3.62469,-5.66855 -9.22565,-9.38046 -16.01099,-9.38046 -6.78924,0 -12.39367,3.70831 -16.01477,9.38046 -3.78326,5.9329 -3.34869,12.6056 -1.3825,18.9856 2.41845,7.8606 9.14782,13.5264 17.39727,13.5264 8.24946,0 14.97461,-5.6658 17.40754,-13.5264 l 0,0 z"
         id="svg_136" />
      <path
         style="fill:#f89939"
         inkscape:connector-curvature="0"
         d="m 623.06781,1024.3926 c 1.62293,1.4624 3.23901,2.9353 4.862,4.4084 4.5188,4.1125 9.60754,6.6873 15.80225,6.6873 5.89801,0 11.62292,-2.4303 15.79559,-6.6873 4.17572,-4.2605 6.5484,-10.1102 6.5484,-16.1293 0,-6.3259 -2.51733,-11.5216 -6.5484,-16.13636 -1.43909,-1.65753 -2.88202,-3.30756 -4.31781,-4.96484 -8.24213,-9.45258 -23.76874,-8.54993 -32.14203,0 -8.37299,8.5502 -9.25354,24.4051 0,32.8221 l 0,0 z"
         id="svg_137" />
      <path
         style="fill:#f89939"
         inkscape:connector-curvature="0"
         d="m 712.59949,1338.3723 c 20.56183,0 20.56183,-32.5615 0,-32.5615 -20.56879,0 -20.56549,32.5615 0,32.5615 l 0,0 z"
         id="svg_138" />
      <path
         style="fill:#f89939"
         inkscape:connector-curvature="0"
         d="m 832.89062,1235.9465 c -1.59851,-4.4232 -3.98883,-10.4171 -8.58184,-12.5188 -4.26471,-1.9493 -7.51746,-2.567 -12.04377,-1.5306 -3.33789,0.7546 -6.29064,3.2461 -8.69152,5.5605 -5.4029,5.1923 -5.64661,15.3346 0,20.4872 5.80603,5.3006 11.88092,7.0226 19.52221,5.6505 3.41944,-0.6131 7.26673,-3.2349 9.72065,-5.6505 -3.3487,1.4156 -6.69001,2.8345 -10.0387,4.2466 1.53455,0 3.06549,0 4.5932,0 6.31183,0 12.00818,-4.4272 13.68073,-10.6412 1.96618,-7.2901 -2.34766,-16.1435 -9.90772,-17.8191 3.06574,0.6826 2.00495,1.0509 0.73529,0.4874 -1.48852,-0.6643 -3.07629,-1.4299 -4.67102,-1.9423 3.64954,3.7261 7.29108,7.4451 10.9408,11.1716 -1.49964,-5.5568 -4.52619,-8.5577 -8.89307,-11.9012 1.24432,0.9785 2.47498,1.9534 3.70898,2.9286 -0.21588,-0.1878 -0.43121,-0.3722 -0.66119,-0.5635 -2.49268,-2.5238 -5.42804,-4.2749 -8.81549,-5.2395 -5.67126,-1.5994 -10.20837,-0.2058 -15.39191,2.0509 -1.97308,0.8633 -3.71295,2.8096 -5.41711,4.2935 -3.37695,2.9645 -4.9754,7.0662 -6.41809,11.2004 -2.66968,7.6441 0.43506,17.0682 5.84497,22.5893 7.49622,7.6616 18.40167,8.4596 27.54889,3.6249 0.39288,-0.1916 0.78186,-0.4118 1.1463,-0.6608 -3.90381,1.0758 -7.80078,2.1629 -11.71149,3.2353 10.88379,0.3611 19.98529,-7.1854 24.46204,-16.8402 -4.99634,3.9241 -9.98218,7.8422 -14.9751,11.7632 7.05786,-2.4984 13.00543,-6.2428 16.85266,-12.9337 1.5733,-2.7511 2.19568,-5.1668 3.13635,-7.8782 -0.89447,2.1809 -1.80334,4.3655 -2.69781,6.5463 0.0105,-0.029 0.0178,-0.058 0.0353,-0.087 -3.2074,3.2784 -6.41797,6.5497 -9.63208,9.8357 0.0105,0 0.0105,0 0.0211,-0.01 -13.46137,-7.8968 -26.93036,-15.7755 -40.39197,-23.6687 0.0285,0.4118 -0.0743,0.8594 -0.12341,1.2711 -0.79944,6.8278 3.36236,14.8437 7.90985,19.487 5.04235,5.1527 11.95507,8.0702 19.08014,8.0702 7.12506,0 14.05596,-2.9208 19.0877,-8.0702 4.5365,-4.6362 8.70911,-12.6703 7.89942,-19.487 -0.33246,-2.8491 -0.29022,-5.8422 -1.13184,-8.5615 -2.83233,-9.2107 -9.47278,-16.5335 -18.7478,-19.1402 -4.75574,-1.3037 -9.51172,-1.3037 -14.2641,0 -4.54382,1.2998 -8.50067,3.6539 -11.84595,7.0517 -5.84826,4.7447 -7.36505,12.8216 -7.93091,19.8593 -0.66467,8.3261 3.19288,15.1976 8.34839,21.1373 -2.1427,-8.3085 -4.29614,-16.6099 -6.44622,-24.9071 -0.19074,1.2927 -0.44886,2.5564 -0.81324,3.813 -1.47094,4.9719 -1.9837,10.3338 -0.20837,15.3492 0,-4.1958 0,-8.3947 0,-12.6017 -0.0743,0.2132 -0.14514,0.4118 -0.2193,0.6211 0.77441,-1.8665 1.54529,-3.7332 2.32312,-5.6038 -0.0987,0.2169 -0.18744,0.4262 -0.27582,0.6424 13.85395,1.8528 27.69751,3.6942 41.55152,5.5464 -1.34369,-3.8562 -2.98792,-8.1857 -6.17047,-10.9657 -1.76441,-1.5491 -3.69507,-3.6653 -5.67157,-4.5281 3.06573,7.6764 6.1206,15.3532 9.18304,23.0332 0.0777,-0.3612 0.15204,-0.7221 0.22961,-1.0796 -2.80731,3.7229 -5.61163,7.4489 -8.41906,11.1787 4.35644,-3.3436 7.39007,-6.3472 8.8861,-11.8974 -3.64563,3.719 -7.29126,7.4455 -10.94085,11.1643 1.60186,-0.5125 3.18255,-1.2782 4.6748,-1.9459 1.26941,-0.5491 2.33393,-0.1844 -0.73157,0.4983 6.11365,-1.3577 10.41327,-7.7954 10.41327,-13.9667 0,-7.9002 -6.44952,-14.4898 -14.18646,-14.4898 -2.74744,0 -5.69665,-0.2309 -8.35907,0.5203 -2.50012,0.6968 -4.44842,1.9461 -6.30115,3.7656 -1.46398,1.437 3.41571,-2.4802 1.54883,-1.2636 -1.91992,1.2492 3.68451,-1.2747 1.27985,-0.5774 2.84662,-0.8127 5.88421,-0.2099 8.09064,1.7979 0,6.8313 0,13.6592 0,20.4805 0.24035,-0.2275 0.48437,-0.4592 0.72473,-0.6899 -2.01575,2.0112 -4.51892,3.0183 -7.52484,3.0295 -2.39386,-0.6609 -4.78028,-1.3147 -7.16736,-1.9789 -1.42823,-1.484 -2.87128,-2.9717 -4.31043,-4.4594 -0.64355,-2.4372 -1.29052,-4.8706 -1.93414,-7.3083 0.1239,1.4049 0.27582,0.578 0.4632,-2.4514 -0.0777,0.6316 -0.27576,1.2567 -0.44556,1.8668 -2.6839,9.7743 4.83014,19.7325 14.72418,19.7325 9.30335,0 18.242,-10.0812 14.74146,-19.7325 l 0,0 z"
         id="svg_139" />
      <path
         style="fill:#f89939"
         inkscape:connector-curvature="0"
         d="m 431.08426,1301.1097 c -5.67175,2.6503 -10.71066,9.6768 -11.96939,15.7575 -1.26959,6.1455 -0.69672,9.9619 0.33233,16.1722 1.09641,3.9972 3.07636,7.4672 5.94068,10.4138 4.31036,4.4013 10.24032,6.9072 16.33636,6.9072 4.16877,-0.015 8.05832,-1.0871 11.6651,-3.2173 4.73468,-2.8416 9.64969,-8.355 10.61151,-14.1037 0.17694,-1.029 0.31104,-2.0653 0.66117,-3.0549 -0.79206,1.9174 -1.58405,3.842 -2.37964,5.7665 0.0634,-0.1731 0.14856,-0.3246 0.24038,-0.48 -1.23391,1.6321 -2.47494,3.2605 -3.70901,4.9033 0.0846,-0.1302 0.19073,-0.2345 0.31473,-0.3252 -1.60919,1.2716 -3.20709,2.5315 -4.8198,3.8024 0.0707,-0.036 0.12735,-0.072 0.19074,-0.1121 -1.89874,0.82 -3.79758,1.6433 -5.68936,2.4555 0.14492,-0.072 0.29736,-0.112 0.45626,-0.1336 -2.12503,0.2925 -4.23974,0.5816 -6.35418,0.8809 0.0884,-0.01 0.18039,-0.022 0.26541,-0.029 6.57348,-0.6359 12.13559,-2.2567 16.9479,-7.1708 6.03952,-6.1708 8.42991,-15.3821 6.15958,-23.8093 -1.64758,-6.1132 -5.65753,-11.4177 -11.01459,-14.6202 -3.73382,-2.217 -7.76864,-3.3291 -12.09289,-3.3438 -4.32459,0.011 -8.36304,1.1303 -12.09329,3.3403 l 0,0 z"
         id="svg_140" />
      <path
         style="fill:#f89939"
         inkscape:connector-curvature="0"
         d="m 923.79083,705.68561 c 3.0763,0 3.0763,-4.87073 0,-4.87073 -3.07629,0 -3.07647,4.87073 0,4.87073 l 0,0 z"
         id="svg_141" />
      <path
         style="fill:#f89939"
         inkscape:connector-curvature="0"
         d="m 914.61157,742.97022 c 20.55817,0 20.55817,-32.56171 0,-32.56171 -20.56903,0 -20.56903,32.56171 0,32.56171 l 0,0 z"
         id="svg_142" />
    </g>
  </g>
</svg>
